<?xml version="1.0" encoding="utf-8"?>
<!-- Generator: Adobe Illustrator 24.0.1, SVG Export Plug-In . SVG Version: 6.00 Build 0)  -->
<svg version="1.1" xmlns="http://www.w3.org/2000/svg" xmlns:xlink="http://www.w3.org/1999/xlink" x="0px" y="0px"
     viewBox="0 0 1366 768" style="enable-background:new 0 0 1366 768;" xml:space="preserve">
<style type="text/css">
	.st0{fill:#FFFFFF;}
	.st1{fill:url(#SVGID_1_);}
</style>
    <g id="background">
	<g>
		<rect x="0.5" y="0.5" class="st0" width="1365" height="767"/>
        <path d="M1365,1v766H1V1H1365 M1366,0H0v768h1366V0L1366,0z"/>
	</g>
</g>
    <g id="lines">
	<linearGradient id="SVGID_1_" gradientUnits="userSpaceOnUse" x1="783.0192" y1="410.3" x2="328.3434" y2="709.9431">
		<stop  offset="0" style="stop-color:#ED1C24;stop-opacity:0.1"/>
        <stop  offset="1" style="stop-color:#000000;stop-opacity:0.9"/>
	</linearGradient>
        <path class="st1" d="M251.63,677.06c58.65-0.33,114.36,8.06,164.47,23.35c30.02-5.13,61.38-7.96,93.68-8.14
		c46.36-0.26,90.87,4.94,132.24,14.67c41.26-10.19,85.71-15.88,132.07-16.14c75.98-0.42,147.01,13.77,207.35,38.68
		c50.75-16.48,107.45-25.86,167.34-26.2c79.95-0.45,154.42,15.27,216.72,42.65V0.5h-811c0,0-65,113-294,123s-261,101-261,101v515.95
		C67.69,701.37,155.58,677.6,251.63,677.06z"/>
</g>
</svg>
