<?xml version="1.0" encoding="utf-8"?>
<!-- Generator: Adobe Illustrator 24.0.1, SVG Export Plug-In . SVG Version: 6.00 Build 0)  -->
<svg version="1.1" id="Layer_1" xmlns="http://www.w3.org/2000/svg" xmlns:xlink="http://www.w3.org/1999/xlink" x="0px" y="0px"
     viewBox="0 0 1366 768" style="enable-background:new 0 0 1366 768;" xml:space="preserve">
<style type="text/css">
	.st0{fill:url(#SVGID_1_);}
	.st1{fill:none;stroke:#DB1616;stroke-width:0.5;stroke-linecap:round;stroke-linejoin:round;}
</style>
    <g>
	<g id="XMLID_1_">
		<g>
			<linearGradient id="SVGID_1_" gradientUnits="userSpaceOnUse" x1="407.5" y1="397.9978" x2="918.2977" y2="397.9978">
				<stop  offset="0" style="stop-color:#FFFFFF"/>
                <stop  offset="1" style="stop-color:#000000"/>
			</linearGradient>
            <path class="st0" d="M768.64,165.84C877.63,215.56,937.97,334.9,912.5,451.87c-30.08,138.08-171.7,231.69-315.57,192.74
				c-95.18-25.77-168.65-106.24-185.6-203.57c-1.57-8.97-2.57-18.04-3.83-27.07c0-10.31,0-20.63,0-30.94
				c0.42-3.59,0.86-7.19,1.26-10.79c4.64-41.49,18.01-79.93,41.54-114.46c41.06-60.26,97.26-97.88,169.2-111.31
				c9.43-1.76,19.02-2.67,28.53-3.97c9.98,0,19.96,0,29.94,0c1.28,0.29,2.55,0.74,3.85,0.83
				C712.16,145.44,741.01,153.24,768.64,165.84z M823.12,570.61c91.08-82.03,103.31-234.15,13.74-331.7
				c-93.27-101.57-253.74-101.76-347.44-0.31c-89.77,97.2-77.96,249.71,12.26,330.97c15.35-7.27,29.78-14.37,44.43-20.96
				c11.04-4.97,22.58-8.87,33.52-14.04c7.45-3.52,14.61-7.92,21.27-12.8c8.08-5.93,13.06-13.94,12.93-24.56
				c-0.13-10.64,0.18-21.29,0.18-31.93c0-1.17-0.48-2.67-1.28-3.48c-11.59-11.61-17.24-26.24-20.97-41.73
				c-1.05-4.35-1.63-8.18-6.82-9.52c-1.71-0.44-3.33-2.29-4.4-3.89c-6.75-10.07-9.61-21.13-7.21-33.12
				c0.58-2.94,2.34-5.94,4.35-8.22c2-2.27,2.46-4.03,1.74-6.99c-5.63-23.21-9.32-46.64-6.25-70.62
				c3.33-25.94,14.43-47.13,38.82-58.9c23.36-11.28,48.15-13.41,73.46-8.07c8.22,1.74,15.59,5.51,21.35,12.07
				c1.57,1.79,4.04,3.35,6.35,3.85c19.88,4.31,32.94,16.16,38.52,35.55c2.32,8.06,3.58,16.61,3.99,25
				c1.02,20.96-2.98,41.33-8.76,61.41c-0.47,1.62-0.54,4.11,0.38,5.26c9.26,11.53,7.04,35.99-4.39,45.46
				c-1.13,0.94-2.43,2.03-3.79,2.29c-3.09,0.59-3.77,2.53-4.23,5.25c-2.23,13.27-5.89,26.72-14.77,36.53
				c-7.96,8.78-7.73,17.92-7.73,27.88c0,4.49,0.63,9,0.3,13.46c-0.99,13.17,5.48,22.54,15.71,29.19
				c8.71,5.68,18.08,10.54,27.61,14.71C778.75,548.61,802.71,555.98,823.12,570.61z"/>
		</g>
        <g>
			<path class="st1" d="M648.03,142.5c9.98,0,19.96,0,29.94,0c1.28,0.29,2.55,0.74,3.85,0.83c30.34,2.11,59.19,9.91,86.82,22.51
				C877.63,215.56,937.97,334.9,912.5,451.87c-30.08,138.08-171.7,231.69-315.57,192.74c-95.18-25.77-168.65-106.24-185.6-203.57
				c-1.57-8.97-2.57-18.04-3.83-27.07c0-10.31,0-20.63,0-30.94c0.42-3.59,0.86-7.19,1.26-10.79c4.64-41.49,18.01-79.93,41.54-114.46
				c41.06-60.26,97.26-97.88,169.2-111.31C628.93,144.71,638.52,143.8,648.03,142.5z"/>
		</g>
	</g>
</g>
</svg>
