<?xml version="1.0" encoding="utf-8"?>
<!-- Generator: Adobe Illustrator 24.0.1, SVG Export Plug-In . SVG Version: 6.00 Build 0)  -->
<svg version="1.1" id="Layer_1" xmlns="http://www.w3.org/2000/svg" xmlns:xlink="http://www.w3.org/1999/xlink" x="0px" y="0px"
	 viewBox="0 0 1366 768" style="enable-background:new 0 0 1366 768;" xml:space="preserve">
<g>
	<path d="M519.57,331.23c5,0,10.02-0.35,14.99,0.08c6.88,0.6,11.5-2.61,13.78-8.46c2.08-5.35,3.98-11.21,3.95-16.83
		c-0.05-11.62-1.48-23.23-2.26-34.85c-1.14-16.85-1.49-33.69,3.55-50.06c1.5-4.88,3.56-9.76,6.3-14.05
		c13.28-20.77,42.83-21.1,56.88-0.8c7.05,10.19,9.33,21.9,10.7,33.92c2.54,22.25-1.94,43.74-6.35,65.33
		c-3.97,19.46-3.51,38.9,0.9,58.48c7.42,32.93,7.12,65.7-7.81,96.74c-4.9,10.18-12.79,18.92-19.19,28.4
		c-0.93,1.37-2.03,3.66-1.5,4.83c7.96,17.65,3.74,33.41-6.88,48.39c-1.13,1.6-2.19,3.94-1.92,5.73c1.69,10.93-2.08,20.11-8.89,28.14
		c-18.5,21.83-41.98,28.78-69.65,22.72c-24.59-5.38-46.76-16.43-67.75-29.81c-12.18-7.77-16.22-20.83-17.76-34.38
		c-0.93-8.22-0.34-16.61-0.52-24.91c-0.04-1.6-0.09-3.42-0.83-4.75c-4.93-8.87-6.37-18.58-6.66-28.43
		c-0.24-8.31,0.36-16.65,0.51-24.97c0.03-1.45-0.04-3.04-0.59-4.34c-9.66-22.78,0.2-40.4,14.99-51.62
		c3.77-2.86,4.66-5.29,4.31-10.12c-1.29-17.68,5.38-31.91,20.88-41.31c12.23-7.42,25.92-10.33,39.88-11.93
		c8.92-1.02,17.93-1.32,26.9-1.95C519.55,330.7,519.56,330.97,519.57,331.23z M602.17,455.92c0.8-1.73,1.67-3.44,2.37-5.21
		c10.91-27.47,11.16-55.67,4.62-83.98c-4.89-21.19-5.21-42.33-1.02-63.45c3.94-19.81,8.71-39.53,6.19-59.83
		c-1.13-9.11-3.75-18.18-6.86-26.85c-2.34-6.51-7.86-10.59-15.11-11.65c-12.24-1.79-20.53,3.57-25.23,16.85
		c-5.28,14.93-5.19,30.41-4.21,45.95c0.87,13.77,2.14,27.54,2.32,41.33c0.11,8.36-2.4,16.52-7.31,23.53
		c-5.6,7.99-12.94,12.18-23.26,11.86c-13.13-0.41-26.33-0.13-39.42,0.89c-12.64,0.98-25.08,3.69-36.14,10.47
		c-12.65,7.76-17.3,21.61-12.07,35.38c1.51,3.98,0.57,6.93-3.14,9.38c-4.56,3.01-9.17,6.13-13.12,9.87
		c-6.77,6.41-10.03,14.37-8.45,23.93c1.39,8.39,5.81,14.76,12.76,19.47c3.58,2.42,4.87,5.7,2.64,9.42
		c-2.31,3.84-5.87,3.85-9.58,1.79c-0.66-0.36-1.44-0.5-2.23-0.76c-1.67,13.17,0.82,26.25,6.6,36.9c0.88,1.62,0.95,3.8,0.96,5.73
		c0.06,8.31-0.65,16.68,0.07,24.93c0.87,10.06,2.96,20.49,12.18,26.31c21.05,13.29,43.13,24.6,68.06,28.8
		c21.44,3.61,39.13-3.21,52.65-20.19c2.61-3.28,3.97-7.57,6.12-11.82c-7.81,1.26-14.15,2.84-20.56,3.2
		c-28.45,1.6-54.4-7.78-79.86-18.96c-3.66-1.61-5.31-4.53-3.78-8.55c1.39-3.65,4.94-4.96,9.09-3.36c8.07,3.12,16.01,6.6,24.17,9.44
		c15.97,5.56,32.31,9.52,49.4,8.47c18.34-1.12,27.49-6.78,33.01-28.52c1.45-5.69,0.61-11.45-2.7-16.58
		c-16.75,6.91-29.02,8.49-44.78,6.5c-24.74-3.13-47.04-12.88-68.6-24.75c-5.13-2.83-6.64-6.19-4.59-9.92
		c2.1-3.82,5.59-4.23,10.78-1.69c10.16,4.96,20.19,10.28,30.66,14.49c17.62,7.07,35.84,11.7,55.08,8.51
		c7.02-1.17,15.3-2.04,18.91-8.65c4.21-7.71,7.27-16.5,8.72-25.17c1.89-11.32-5-16.84-16.51-15.69c-7.39,0.74-15.05,1.77-22.26,0.63
		c-24.32-3.87-46.94-13.43-69.66-22.49c-4.16-1.66-5.73-5.38-4.08-8.85c1.83-3.85,5.03-4.57,8.82-3.34
		c1.74,0.56,3.37,1.43,5.11,2.01c19.07,6.37,38.12,12.81,57.25,19.02c8.02,2.6,16.19,1.98,24.03-0.88
		c15.07-5.49,19.71-26.37,8.4-38.8c-3.39-3.73-8.08-6.3-12.25-9.29c-3.15-2.26-4.37-5.17-2.65-8.65c1.57-3.19,4.55-4.81,7.92-3.19
		c13.97,6.71,24.26,16.61,25.86,32.92c1.1,11.28-1.42,21.82-9.29,30.8C596.83,438.78,600.38,446.59,602.17,455.92z"/>
</g>
</svg>
