<svg xmlns="http://www.w3.org/2000/svg" viewBox="0 0 801 516.95"><defs><style>.cls-1{fill:#d83a3a;}.cls-2{fill:#fff;}.cls-3{fill:#f9f2f2;}.cls-4{opacity:0.5;}</style></defs><title>TheRedsLogo</title><g id="text"><text x="-130" y="-251.05"/><rect class="cls-1" x="0.5" y="291.45" width="800" height="225"/><path class="cls-2" d="M930,543V767H131V543H930m1-1H130V768H931V542Z" transform="translate(-130 -251.05)"/><path class="cls-3" d="M314.85,626.64h-24v-8.58h58.26v8.58H325.07v70.09H314.85Z" transform="translate(-130 -251.05)"/><path class="cls-3" d="M368.07,618.06v33h38v-33h10.21v78.67H406.1V659.82h-38v36.91H357.85V618.06Z" transform="translate(-130 -251.05)"/><path class="cls-3" d="M474.68,659.85h-30.5v28.42h34.11v8.46H434V618.06H476.5v8.46H444.18v24.92h30.5Z" transform="translate(-130 -251.05)"/><path class="cls-3" d="M516.14,619.14a107.28,107.28,0,0,1,19.55-1.69c10.78,0,17.89,2,22.79,6.47,3.89,3.44,6.18,8.8,6.18,15,0,10.33-6.6,17.2-14.83,20v.29c6,2.1,9.62,7.78,11.53,15.93,2.59,11,4.45,18.52,6,21.59H556.87c-1.23-2.27-3-9-5.16-18.83-2.34-10.78-6.59-14.95-15.8-15.26H526.3v34.09H516.14ZM526.3,655h10.38c10.88,0,17.76-5.92,17.76-14.94,0-10.22-7.37-14.66-18.08-14.67a44.7,44.7,0,0,0-10.06.89Z" transform="translate(-130 -251.05)"/><path class="cls-3" d="M619.66,659.85h-30.5v28.42h34.12v8.46H579V618.06h42.53v8.46H589.16v24.92h30.5Z" transform="translate(-130 -251.05)"/><path class="cls-3" d="M636.38,619.14A135.5,135.5,0,0,1,658,617.45c14.56,0,25,3.45,31.88,9.88S701,642.81,701,655.48c0,12.9-4,23.34-11.31,30.6-7.44,7.33-19.6,11.34-34.84,11.34a164.64,164.64,0,0,1-18.48-.87Zm10.21,69.6a73.44,73.44,0,0,0,10.21.48c21.78,0,33.51-12.08,33.51-33.36.12-18.58-10.39-30.31-31.82-30.31a60.5,60.5,0,0,0-11.9,1Z" transform="translate(-130 -251.05)"/><path class="cls-3" d="M712.81,684.35a35.41,35.41,0,0,0,18.15,5.1c10.4,0,16.51-5.43,16.51-13.4,0-7.29-4.27-11.59-14.88-15.56-12.84-4.56-20.81-11.31-20.81-22.32,0-12.25,10.18-21.34,25.5-21.34,8,0,13.93,1.86,17.36,3.8L751.81,629A30,30,0,0,0,737,625.23c-10.81,0-14.89,6.4-14.89,11.76,0,7.31,4.79,10.91,15.65,15.11,13.34,5.23,20.06,11.64,20.06,23.17,0,12.07-8.89,22.69-27.53,22.69-7.61,0-15.9-2.3-20.1-5.13Z" transform="translate(-130 -251.05)"/><g class="cls-4"><path class="cls-3" d="M304.54,613.13h-24v-8.59h58.26v8.59H314.75v70.09H304.54Z" transform="translate(-130 -251.05)"/><path class="cls-3" d="M357.75,604.54v33h38v-33H406v78.68H395.78V646.31h-38v36.91H347.54V604.54Z" transform="translate(-130 -251.05)"/><path class="cls-3" d="M464.37,646.34H433.86v28.42H468v8.46H423.65V604.54h42.53V613H433.86v24.92h30.51Z" transform="translate(-130 -251.05)"/><path class="cls-3" d="M505.83,605.62a108.14,108.14,0,0,1,19.54-1.69c10.79,0,17.9,2.05,22.8,6.48,3.88,3.44,6.17,8.8,6.17,15,0,10.34-6.6,17.21-14.83,20v.29c6,2.1,9.63,7.77,11.54,15.93,2.59,11,4.45,18.51,6.05,21.59H546.56c-1.24-2.28-3-9-5.17-18.84-2.33-10.77-6.59-15-15.79-15.25H516v34.09H505.83ZM516,641.44h10.39c10.87,0,17.76-5.92,17.76-14.94,0-10.22-7.37-14.66-18.09-14.68a44,44,0,0,0-10.06.9Z" transform="translate(-130 -251.05)"/><path class="cls-3" d="M609.35,646.34h-30.5v28.42H613v8.46H568.63V604.54h42.53V613H578.85v24.92h30.5Z" transform="translate(-130 -251.05)"/><path class="cls-3" d="M626.06,605.62a136.81,136.81,0,0,1,21.63-1.69c14.55,0,25,3.45,31.87,9.88,7,6.37,11.14,15.49,11.14,28.16,0,12.9-4,23.33-11.32,30.6s-19.59,11.34-34.83,11.34a164.83,164.83,0,0,1-18.49-.87Zm10.21,69.6a72.07,72.07,0,0,0,10.22.48c21.78.06,33.51-12.08,33.51-33.35.12-18.58-10.39-30.31-31.82-30.31a60.53,60.53,0,0,0-11.91,1Z" transform="translate(-130 -251.05)"/><path class="cls-3" d="M702.5,670.84a35.41,35.41,0,0,0,18.15,5.1c10.39,0,16.5-5.43,16.5-13.4,0-7.29-4.26-11.59-14.88-15.57-12.84-4.55-20.8-11.31-20.8-22.31,0-12.25,10.18-21.34,25.5-21.34,8,0,13.92,1.85,17.36,3.8l-2.84,8.33a29.86,29.86,0,0,0-14.86-3.73c-10.8,0-14.88,6.4-14.88,11.76,0,7.31,4.78,10.91,15.64,15.11,13.35,5.23,20.07,11.64,20.07,23.17,0,12.07-8.89,22.69-27.53,22.69-7.61,0-15.91-2.3-20.11-5.14Z" transform="translate(-130 -251.05)"/></g></g><g id="lfcBird"><path class="cls-1" d="M511.26,596.42a1.09,1.09,0,0,1-.48-.08l-.13-.07c-1.11-.65-2.49-1.46-2.92-2.45-.67-1.55,0-3.11,1.69-4.18.51-.32,1-.67,1.6-1.07l.92-.64.85-.58-1-.31a10.89,10.89,0,0,0-3.27-.5,13.45,13.45,0,0,0-10,4.78c-.23-.26-.47-.52-.71-.77-.64-.66-1.43-1.49-1.36-1.94a6.21,6.21,0,0,1,2.52-4,13.81,13.81,0,0,1,4.75-1.27l1.47-.23a6,6,0,0,1,1.1-.08l1,0,1,0h.4l.09-.38c.87-3.65,2.11-4.88,5-4.88.31,0,.65,0,1,.05,4,.35,8.07,1.11,12,1.85,1.35.26,2.7.52,4.06.76,1,.17,2,.41,3,.65a34.67,34.67,0,0,0,4.67.89l.61,0a3.21,3.21,0,0,0,2.92-1.36,3.71,3.71,0,0,0-.25-3.67c-1.37-2.62-2.88-5.23-4.33-7.75-.81-1.42-1.63-2.84-2.43-4.27l-.73-1.27a23.15,23.15,0,0,1-2-4c-2.86-8.14-5-14.45-6.8-20.44-1-3.37-1.93-6.83-2.78-10.19l-1.17-4.53-.18-.67L510.37,531l-.06-.07c0-.16.07-.32.11-.48a10.37,10.37,0,0,1,.41-1.46c3.38-8.59,1.52-16.89-.47-23.16-.86-2.72-2.09-5.41-6.66-5.85A228.36,228.36,0,0,1,448,487.29c-12.53-4.53-22.67-10.12-31-17.11a49.51,49.51,0,0,1-13.75-18.38c-2.92-6.72-4.12-12.91-3.66-18.94a51.56,51.56,0,0,1,8-23.7,65.07,65.07,0,0,1,13.37-15.82c6.19-5.2,12.81-10.22,19.67-14.92,5.35-3.67,10.9-7.26,16.26-10.73,4.84-3.12,9.84-6.36,14.69-9.65A29.69,29.69,0,0,0,482,346.55a9,9,0,0,0,.09-6.93,11.62,11.62,0,0,0-6-6.57,23.22,23.22,0,0,0-9.53-1.87,42.73,42.73,0,0,0-6.84.61c-1.64.27-3.28.5-4.93.74-2.65.38-5.39.78-8.07,1.28a6.89,6.89,0,0,0-3.49,2c-1.37,1.44-2.64,3-4,4.65-.57.7-1.15,1.42-1.78,2.17l-.57.69.89.13,1,.11a7,7,0,0,1,1.27.21c.83.26,1.72.46,2.58.66,2,.46,4,.93,5.4,2.07a6.7,6.7,0,0,0,4.33,1.73,10.49,10.49,0,0,0,4.28-1.17c.56-.26,1.09-.55,1.66-.87l.19-.11c.06,2.12-1.49,3.33-2.87,4.4l-.11.09A14.84,14.84,0,0,1,446.4,354,11.72,11.72,0,0,1,436,347.57a2.76,2.76,0,0,0-2.37-1.73,3.62,3.62,0,0,0-2,.75l-.54.36c-1.64,1.1-3.34,2.23-3.07,5.34.09,1-1.3,2.37-2.52,3.57-.39.38-.76.76-1.09,1.11a19.21,19.21,0,0,1-1.89,1.7,15.62,15.62,0,0,0-2.37,2.23,4.92,4.92,0,0,0-.77,2.55c0,.31-.08.63-.14,1-.3,0-.6,0-.9,0a7,7,0,0,1-5.54-2.68,4.46,4.46,0,0,1-.65-4.14c.6-1.79,2.43-3.71,5.44-5.69a48.2,48.2,0,0,1,6.42-3.34c1.17-.53,2.38-1.09,3.55-1.68a13.39,13.39,0,0,0,3.47-2.61l.59-.6-.82-.23a10.25,10.25,0,0,0-2.75-.38,16.36,16.36,0,0,0-7.26,2.1,19.8,19.8,0,0,1-8.75,2.18,17.37,17.37,0,0,1-4.67-.65,5,5,0,0,1-3.62-2.56,12.58,12.58,0,0,0,1.5.09c3,0,5.59-1.1,8.09-2.16.93-.39,1.9-.8,2.85-1.13a21.83,21.83,0,0,1,7.26-1.41,13.82,13.82,0,0,1,8,2.45,3.06,3.06,0,0,0,1.5.42,1,1,0,0,0,.78-.27c1.53-1.6,3-3.23,4.48-5l1.7-1.91-.38-.33a7.63,7.63,0,0,0-2.69-1.37c-1.35-.45-2.36-.8-2.74-2.32h4.82c2.36,0,3.6-1.06,3.79-3.15a7.42,7.42,0,0,1,.26-1.22l.15-.53c.47-1.89.72-3.09.17-3.79a1.86,1.86,0,0,0-1.52-.56,16.64,16.64,0,0,0-2.65.33c-3.14.57-6.24,1.2-9.52,1.87L426,325c2.34-5.19,7-6.61,11.9-8.1,1.58-.49,3.22-1,4.79-1.62l.52-.21L440,309.1l5-.84.6,1.17c.67,1.29,1.35,2.62,2.08,3.91.29.5,1,1.37,1.7,1.39,2.07,0,4.13.06,5.69.06h5.42l0-.48c.19-4.44,1.23-5.8,5.3-6.94a29.7,29.7,0,0,1,8.1-1.06,51,51,0,0,1,10.3,1.19c6.27,1.29,12.61,2.79,18.74,4.25,5.07,1.2,10.32,2.45,15.5,3.56l.59.13a50.75,50.75,0,0,0,10.55,1.51,20,20,0,0,0,6.87-1.14,27.68,27.68,0,0,0,3.94-1.95c.58-.33,1.18-.67,1.82-1a.65.65,0,0,1,.31.35c.2.54-.29,1.54-.58,2.13-1.73,3.53-5.15,5.05-8.27,6.07A40.07,40.07,0,0,1,521,323.32a57.43,57.43,0,0,1-7.52-.52,9.79,9.79,0,0,0-1.33-.08,12.94,12.94,0,0,0-3.73.59l-1.1.32,1,.59.86.52a16.65,16.65,0,0,0,2,1.13,12.1,12.1,0,0,1,6.68,8,16.21,16.21,0,0,1-2,12.81c-4.41,6.38-10.26,11.51-15.91,16.48-1.41,1.23-2.81,2.46-4.2,3.71-7.26,6.57-13.65,12.63-18.33,20.4-5.12,8.51-6.74,16.49-4.94,24.41a11.27,11.27,0,0,0,2.63,5.45A5.68,5.68,0,0,0,479,419c1.94,0,3.82-1.39,5.57-4.13a28,28,0,0,0,2.78-6.63c.26-.79.51-1.58.79-2.36.86-2.39,1.68-4.85,2.47-7.22,1.63-4.91,3.32-10,5.45-14.76a43.86,43.86,0,0,1,13.67-17.7c9.83-7.34,20-14.92,30.3-22.08l1.41-1c10.83-7.51,22-15.28,31.27-25.15l.59-.63a199,199,0,0,0,15.57-18,65.41,65.41,0,0,0,8.06-15.67c2.22-5.8,1.12-11.49-3.27-16.93h1.19a4.64,4.64,0,0,1,1.86.25l.73.33c4.37,2,8.5,3.84,10.62,8.59,1.52,3.38,1.79,7,.88,11.76A37.38,37.38,0,0,1,603,301.51c-7.67,11.52-18,21.63-33.53,32.8-6.48,4.66-13.23,9.18-19.75,13.54q-5.12,3.42-10.2,6.88c-8.66,5.9-17,11.83-23.79,19.35C510,380.35,506.33,386,504.05,392c-2.12,5.49-4.68,12-7.58,18.4a24.7,24.7,0,0,1-13.08,12.88,4.18,4.18,0,0,0-1.5,1.34c-.18.22-.35.43-.54.62l-.57.59.78.24c.28.09.56.21.85.33a4.73,4.73,0,0,0,1.84.53,1.73,1.73,0,0,0,.32,0A27.89,27.89,0,0,0,503,415.93a66,66,0,0,0,7.88-13.88c4.63-11.12,12.36-19.48,23.64-25.55C544.68,371,558,363.82,571,356.31c14.68-8.46,26-16.5,35.71-25.29a178.48,178.48,0,0,0,22-23.93,136.62,136.62,0,0,0,16.9-28.88c3.53-8.26,6.69-16.42,6.72-25.33,0-.61.16-1.33.58-1.33a1.64,1.64,0,0,1,.93.51l.94.89a19.35,19.35,0,0,1,4.48,5.26c1.76,3.69,3.76,7.86,2.35,13.05-2.5,9.21-7.43,16.75-12.65,24.73l-.47.71c-5.79,8.86-13.07,17.33-23.61,27.46a204.5,204.5,0,0,1-42,31.4c-9,5-18.15,9.92-27,14.71q-6.79,3.64-13.56,7.32a12.39,12.39,0,0,0-1.46,1l-.63.46-.3.2.43,1.49.4,0,.56,0h.5a5.43,5.43,0,0,0,1.67-.19c2.82-.88,5.63-1.78,8.45-2.68,4.09-1.32,8.32-2.67,12.5-3.94a3.08,3.08,0,0,1,1-.13,10.66,10.66,0,0,1,1.34.11l.69.07-.06.69a8,8,0,0,1-.42,2.37c-2.55,6.25-8.39,8.61-14,10.89l-.48.19c-3.88,1.57-8,2.8-11.93,4-1.87.56-3.74,1.12-5.6,1.72-.56.18-1.1.42-1.62.64l-.71.31-.36.14.22,1.58.41,0,.8.09a9.56,9.56,0,0,0,1.2.11,3.29,3.29,0,0,0,.73-.07c4.63-1,9.25-2,13.87-3.05,4.79-1.06,9.59-2.12,14.39-3.15a4.67,4.67,0,0,1,1-.09c.35,0,.71,0,1.06,0l.47,0c0,.17,0,.35-.07.52a5.11,5.11,0,0,1-.5,2,15,15,0,0,1-8.45,6.46c-5,1.65-10.11,3.07-15.08,4.44-2,.55-4,1.1-6,1.67l-.38.11a12.22,12.22,0,0,0-3.6,1.44l-1.09.71,1.29.2a44.34,44.34,0,0,0,7,.52,105.35,105.35,0,0,0,15.83-1.59c2.81-.42,5.71-.85,8.62-1.17-1.31,3.69-3.92,5.55-6.58,7-6.27,3.42-13.39,5.3-22.42,5.92a7.2,7.2,0,0,0-3.28,1l-1,.56,1,.34a46.92,46.92,0,0,0,14.61,1.8l3.51,0,3.59,0c.76,0,1.51,0,2.27,0-.06.1-.12.2-.17.3a5.77,5.77,0,0,1-.94,1.39c-4.84,4.55-11,7-20,7.88l-1.11.11c-.7.06-1.41.12-2.11.21a1.8,1.8,0,0,0-.77.39c-.18.13-.41.29-.74.5l-.73.46.76.4c8,4.19,16.91,6.89,28.06,8.5,6.58.95,13.15,1.49,20.11,2.05,2.64.22,5.32.43,8,.68l-1.18.79c-1.53,1-3,2-4.45,2.87a43.19,43.19,0,0,1-23,6.38,60.62,60.62,0,0,1-16-2.31,78.48,78.48,0,0,1-31.31-16.78,5.87,5.87,0,0,0-1.92-1.28,4.16,4.16,0,0,0-1.18-.18,1.62,1.62,0,0,0-1.23.4,2.39,2.39,0,0,0,0,2.55c.52.63,1,1.27,1.54,1.91a74.61,74.61,0,0,0,6.25,7.2C520,453,527.65,458,535,462.79c3,2,6.16,4,9.17,6.15,7,4.9,15.67,11.83,20.85,21.92,4.35,8.47,5.25,17.92,2.69,28.09a6.14,6.14,0,0,1-1.58,2.34c-.1.13-.21.25-.32.37,0-.1-.05-.2-.08-.3a10.16,10.16,0,0,1-.43-2.64,35.74,35.74,0,0,0-3.76-18.18,42.31,42.31,0,0,0-11.31-13.84c-4.3-3.37-8.72-6.74-13-10-4.89-3.72-10-7.57-14.84-11.45-6.11-4.83-12.94-10.87-17.31-19l-1-1.79c-1.37-2.54-2.78-5.17-4.22-7.73a5.57,5.57,0,0,0-1.08-1.25c-.27-.26-.59-.58-1-1l-.7-.73-.16,1c-.09.59-.2,1.1-.3,1.56a8.13,8.13,0,0,0-.28,2.34c.44,5.74,2.73,11.19,7.2,17.16C513.46,469,526.7,478,539.5,486.69c1,.7,1.1,1.23,1.11,2.64s0,2.71-.05,4.07c-.09,4.2-.19,8.54.85,12.55a35.14,35.14,0,0,0,16,21.56c.81.49,1.58,1,2.55,1.69l.74.51a18.89,18.89,0,0,1-4.22.47c-5,0-9.61-2-14.47-4.07l-1.86-.8.15.9c.27,1.6.52,3.12.75,4.6.5,3.11,1,6.05,1.55,8.94.24,1.21.46,2.42.69,3.63a116.52,116.52,0,0,0,3,13.14,185.69,185.69,0,0,0,7.4,19.37c2,4.46,5.54,7,10.09,7.27,1.4.07,2.82.08,4.19.09,1.79,0,3.64,0,5.44.17l1.78.14a52.94,52.94,0,0,1,10,1.39c1.64.45,2.76,1.31,3.07,2.35s-.17,2.32-1.38,3.67c-1.53,1.72-2.51,2.36-3.58,2.36a8.37,8.37,0,0,1-3.53-1.27A30.72,30.72,0,0,0,569.18,589a165.87,165.87,0,0,0-19.81-1.19,171.56,171.56,0,0,0-25.6,2c-3.83.58-9.07,1.37-11.57,6.51A3,3,0,0,1,511.26,596.42Zm-49.51-212c-.42.15-.8.27-1.14.37a7.59,7.59,0,0,0-1.8.71A49.84,49.84,0,0,0,444,399l-.07.11c-3,4.28-6.16,8.71-7.61,13.61a39.57,39.57,0,0,0,1.41,27.36c3,7.05,7.85,13.19,14.83,18.75,8.69,6.93,19.46,11.92,32.93,15.28a4,4,0,0,0,1,.1l.78,0,.72,0h.76l-.3-.7a4.19,4.19,0,0,0-1.9-2.23c-9.36-4.89-20-11.31-27.76-21.93-3.77-5.14-7.43-10.81-8.69-17.45a96.6,96.6,0,0,1-1.18-16.47c-.06-4.73,1.33-9.53,4.5-15.56a82.88,82.88,0,0,1,5.71-8.89c.94-1.34,1.91-2.72,2.83-4.11a2.49,2.49,0,0,0,.29-.92c0-.22.09-.5.17-.86l.22-.89Zm-14.46-53.89.72-.13c1-.18,2-.32,3-.46,3.53-.49,6.86-1,9.91-2.93a3.08,3.08,0,0,0,1.41-2.28,2.61,2.61,0,0,0-1.82-2.05c-2.77-.36-5.58-.6-8.29-.84l-3.06-.27ZM471.8,315a4.1,4.1,0,0,0-2.35,1,.71.71,0,0,0-.22.55,6.73,6.73,0,0,0,1.28,3.5A3.46,3.46,0,0,0,473,321l.4,0c3.26-.39,6.56-.87,9.75-1.34l3.79-.55-.1-1.93-3.95-.6c-3.58-.55-7.29-1.13-10.95-1.59Z" transform="translate(-130 -251.05)"/><path class="cls-2" d="M652.94,252.06a1.54,1.54,0,0,1,.52.37l.95.88a19.11,19.11,0,0,1,4.37,5.12c2.15,4.5,3.58,8,2.32,12.7-2.48,9.13-7.39,16.64-12.59,24.58l-.47.72c-5.77,8.82-13,17.26-23.54,27.37a203.86,203.86,0,0,1-41.94,31.32c-8.95,5-18.12,9.91-27,14.69q-6.8,3.66-13.59,7.34a12.2,12.2,0,0,0-1.52,1l-.62.45-.58.41.19.68,0,.14.18.62.22.77.8,0a4.7,4.7,0,0,1,.53,0h.5a5.93,5.93,0,0,0,1.82-.21q4.23-1.32,8.45-2.69c4.09-1.31,8.32-2.67,12.49-3.94a3.25,3.25,0,0,1,.83-.1,12.33,12.33,0,0,1,1.29.1l.2,0v.2a8.15,8.15,0,0,1-.39,2.22c-2.47,6-8.21,8.37-13.76,10.62l-.48.19c-3.85,1.56-7.93,2.79-11.88,4-1.84.55-3.75,1.12-5.61,1.73A17.53,17.53,0,0,0,533,394c-.23.1-.46.21-.7.3l-.72.3.11.76.06.43,0,.37.11.81.81.05a6.73,6.73,0,0,1,.77.09,10.34,10.34,0,0,0,1.27.11,4.44,4.44,0,0,0,.84-.08q6.92-1.5,13.83-3c4.73-1.05,9.61-2.13,14.42-3.16a3.83,3.83,0,0,1,.88-.08c.31,0,.63,0,1,0a4.85,4.85,0,0,1-.43,1.79,14.51,14.51,0,0,1-8.18,6.24c-5,1.64-10.1,3.06-15.07,4.43-2,.55-4,1.1-6,1.67l-.39.1a13,13,0,0,0-3.73,1.51L529.76,408l2.57.4a44.16,44.16,0,0,0,7,.53,108.42,108.42,0,0,0,15.91-1.59c2.54-.38,5.15-.78,7.77-1.08a12.49,12.49,0,0,1-6,6c-6.2,3.39-13.26,5.25-22.22,5.86a8,8,0,0,0-3.5,1.06l-1.92,1.13,2.12.69a47.36,47.36,0,0,0,14.76,1.82q1.75,0,3.51,0l3.59,0h1.42a3.5,3.5,0,0,1-.6.84c-4.76,4.47-10.83,6.86-19.68,7.76l-1.09.1c-.7.06-1.43.13-2.14.22a2.24,2.24,0,0,0-1,.47c-.17.12-.39.28-.72.48l-1.46.93,1.53.81c8,4.21,17,6.93,28.21,8.54,6.6,1,13.18,1.49,20.15,2.06l6.63.55c-1.53,1-3,2-4.43,2.87a42.7,42.7,0,0,1-22.74,6.3,60,60,0,0,1-15.87-2.29,78,78,0,0,1-31.11-16.68l0,0a6.14,6.14,0,0,0-2.06-1.35,4.51,4.51,0,0,0-1.33-.2,2.05,2.05,0,0,0-1.6.57,2.82,2.82,0,0,0,0,3.19c.51.63,1,1.27,1.52,1.91a76.88,76.88,0,0,0,6.31,7.25c6.52,6.31,14.15,11.31,21.53,16.15,3,2,6.15,4,9.15,6.14,6.94,4.87,15.56,11.75,20.7,21.74,4.28,8.35,5.17,17.69,2.64,27.74a4.82,4.82,0,0,1-1.16,1.79,8.08,8.08,0,0,1-.26-1.88A36.27,36.27,0,0,0,562,500.31a42.84,42.84,0,0,0-11.45-14c-4.3-3.38-8.72-6.74-13-10-4.89-3.72-9.95-7.58-14.84-11.45-6.07-4.8-12.86-10.79-17.18-18.81l-.93-1.71c-1.38-2.57-2.81-5.23-4.26-7.82a6.12,6.12,0,0,0-1.17-1.36c-.27-.26-.59-.57-1-1l-1.39-1.47-.32,2c-.09.57-.2,1.08-.3,1.54a8.81,8.81,0,0,0-.29,2.48c.45,5.83,2.77,11.37,7.3,17.42,9.9,13.24,23.17,22.24,36,30.94.84.57.88.91.89,2.24s0,2.71-.05,4.05c-.09,4.23-.19,8.61.87,12.69a35.65,35.65,0,0,0,16.19,21.86c.73.44,1.43.92,2.28,1.5a18.25,18.25,0,0,1-2.95.24c-4.91,0-9.46-2-14.28-4l-1-.44-1.68-.72.3,1.81.75,4.57c.5,3.12,1,6.07,1.55,9l.69,3.61a116.06,116.06,0,0,0,3,13.21,186.68,186.68,0,0,0,7.42,19.42c2,4.64,5.77,7.33,10.52,7.57,1.41.07,2.84.08,4.22.09,1.78,0,3.62,0,5.4.17l1.78.13a53.4,53.4,0,0,1,9.91,1.38c1.47.4,2.46,1.14,2.72,2,.32,1.1-.51,2.34-1.27,3.19-1.63,1.83-2.44,2.19-3.21,2.19a8,8,0,0,1-3.29-1.21,31.32,31.32,0,0,0-10.75-3.12,166.88,166.88,0,0,0-19.87-1.19,172.49,172.49,0,0,0-25.67,2c-3.89.59-9.19,1.39-11.84,6.58a2.17,2.17,0,0,1-.6.08H511l-.13-.07c-1.05-.62-2.35-1.38-2.72-2.22-.81-1.87.77-3.11,1.49-3.55.54-.33,1-.69,1.63-1.1l.92-.63,1.7-1.16-2-.62a11.25,11.25,0,0,0-3.42-.52,13.86,13.86,0,0,0-10,4.54l-.35-.37a6.48,6.48,0,0,1-1.23-1.52,5.72,5.72,0,0,1,2.28-3.65,13.26,13.26,0,0,1,4.58-1.22c.5-.07,1-.14,1.48-.23a5.92,5.92,0,0,1,1-.07l.95,0,1,0h.79l.19-.76c.81-3.45,1.86-4.5,4.46-4.5.29,0,.62,0,1,.05a120.33,120.33,0,0,1,12,1.85l4,.75c1,.17,2,.41,3,.64a34.69,34.69,0,0,0,4.73.91l.66,0a3.7,3.7,0,0,0,3.35-1.6,4.2,4.2,0,0,0-.23-4.16c-1.38-2.63-2.88-5.24-4.34-7.76-.81-1.42-1.63-2.84-2.43-4.27-.24-.43-.49-.85-.74-1.28a22.94,22.94,0,0,1-2-4c-2.85-8.13-5-14.43-6.8-20.42-1-3.35-1.91-6.81-2.77-10.16-.39-1.52-.77-3-1.17-4.54l-.36-1.33-1.15.75-6.3,4.12-3,2a8.16,8.16,0,0,1,.24-.79c3.44-8.73,1.56-17.14-.45-23.49-.88-2.75-2.22-5.73-7.09-6.2a227.73,227.73,0,0,1-55.58-12.61c-12.48-4.51-22.57-10.08-30.85-17a49,49,0,0,1-13.61-18.2c-2.89-6.65-4.07-12.76-3.62-18.7A50.93,50.93,0,0,1,408,409.42a64.67,64.67,0,0,1,13.26-15.7c6.18-5.19,12.78-10.19,19.63-14.89,5.35-3.67,10.89-7.25,16.25-10.72,4.84-3.13,9.84-6.36,14.7-9.65a30,30,0,0,0,10.61-11.69,9.43,9.43,0,0,0,.12-7.32,12.14,12.14,0,0,0-6.3-6.86,23.67,23.67,0,0,0-9.73-1.91,43.55,43.55,0,0,0-6.91.62c-1.64.26-3.31.5-4.93.74-2.65.38-5.4.78-8.09,1.28a7.37,7.37,0,0,0-3.76,2.15c-1.39,1.45-2.66,3-4,4.68-.57.7-1.16,1.42-1.78,2.16l-1.16,1.39,1.79.24,1,.12a6.59,6.59,0,0,1,1.17.18c.85.27,1.75.48,2.62.68,2,.46,3.91.9,5.2,2a7.13,7.13,0,0,0,4.64,1.85,10.9,10.9,0,0,0,4.49-1.22c.35-.16.7-.34,1.05-.53-.33,1.35-1.48,2.24-2.59,3.11l-.11.08a14.28,14.28,0,0,1-8.78,3.28,11.23,11.23,0,0,1-9.94-6.12,3.24,3.24,0,0,0-2.81-2,4.08,4.08,0,0,0-2.3.84l-.53.36c-1.68,1.12-3.59,2.38-3.29,5.79.07.76-1.4,2.22-2.37,3.18-.4.39-.77.75-1.11,1.12a16.53,16.53,0,0,1-1.84,1.65,16.59,16.59,0,0,0-2.44,2.31,5.51,5.51,0,0,0-.88,2.8c0,.18-.05.37-.07.56h-.47a6.45,6.45,0,0,1-5.13-2.47,4,4,0,0,1-.59-3.69c.56-1.69,2.33-3.51,5.24-5.43a48.44,48.44,0,0,1,6.36-3.3c1.17-.54,2.39-1.1,3.56-1.7a13.8,13.8,0,0,0,3.6-2.7l1.19-1.2L431,343a11,11,0,0,0-2.89-.4,17.19,17.19,0,0,0-7.48,2.15,19.26,19.26,0,0,1-8.53,2.13,17.26,17.26,0,0,1-4.54-.63,5.28,5.28,0,0,1-2.78-1.5h.53c3.1,0,5.74-1.12,8.29-2.2,1-.41,1.88-.79,2.82-1.12a21.28,21.28,0,0,1,7.09-1.38,13.36,13.36,0,0,1,7.68,2.36,3.53,3.53,0,0,0,1.78.51,1.51,1.51,0,0,0,1.14-.42c1.54-1.61,3-3.24,4.5-5l1.36-1.53.66-.75-.75-.67a8,8,0,0,0-2.86-1.46c-1.07-.36-1.79-.61-2.18-1.35H439c3.22,0,4.07-2,4.22-3.6a5.8,5.8,0,0,1,.25-1.13c.05-.18.1-.37.14-.55.51-2,.77-3.34.08-4.22a2.36,2.36,0,0,0-1.91-.75,17.64,17.64,0,0,0-2.74.34c-3.15.57-6.25,1.2-9.54,1.87l-2.53.52c2.34-4.25,6.46-5.51,11.14-6.94,1.6-.48,3.24-1,4.84-1.63l1-.41-.54-1-2.6-4.82,2.92-.48,1-.18.44.85c.67,1.3,1.36,2.63,2.09,3.92.15.27,1,1.62,2.11,1.65,2.08,0,4.14.06,5.69.06H461l0-1c.18-4.24,1.06-5.4,4.93-6.48a29.19,29.19,0,0,1,8-1,50.71,50.71,0,0,1,10.2,1.18c6.26,1.29,12.59,2.79,18.71,4.24,5.08,1.21,10.34,2.45,15.53,3.57l.59.13a50.66,50.66,0,0,0,10.65,1.52,20.32,20.32,0,0,0,7-1.17,26.78,26.78,0,0,0,4-2l1.43-.8a5.29,5.29,0,0,1-.58,1.62c-1.64,3.35-4.8,4.78-8,5.82a39.61,39.61,0,0,1-12.54,1.9,56.58,56.58,0,0,1-7.47-.52,12.66,12.66,0,0,0-1.39-.08,13.22,13.22,0,0,0-3.87.61l-2.21.65,2,1.17.86.52a17.25,17.25,0,0,0,2,1.15,11.62,11.62,0,0,1,6.41,7.72,15.69,15.69,0,0,1-1.91,12.39c-4.38,6.33-10.2,11.45-15.83,16.39-1.39,1.21-2.82,2.47-4.2,3.72-7.29,6.59-13.71,12.69-18.43,20.52-5.19,8.62-6.82,16.72-5,24.77a11.63,11.63,0,0,0,2.78,5.7,6.11,6.11,0,0,0,4.21,2c2.13,0,4.14-1.47,6-4.37a29.09,29.09,0,0,0,2.83-6.73c.25-.78.51-1.58.78-2.35.86-2.4,1.68-4.85,2.47-7.23,1.63-4.9,3.31-10,5.43-14.72A43.51,43.51,0,0,1,510,366.61c9.82-7.33,20-14.91,30.28-22.07l1.42-1c10.85-7.53,22.07-15.31,31.34-25.22l.6-.63a201.74,201.74,0,0,0,15.61-18.07,66.42,66.42,0,0,0,8.12-15.79c2.17-5.69,1.26-11.27-2.72-16.61h.17a4.07,4.07,0,0,1,1.65.21l.73.33c4.28,1.93,8.33,3.76,10.38,8.33,1.47,3.28,1.73,6.82.84,11.47a37.1,37.1,0,0,1-5.86,13.65c-7.64,11.47-18,21.54-33.42,32.67-6.46,4.66-13.21,9.17-19.73,13.54-3.35,2.24-6.81,4.56-10.2,6.87-8.68,5.93-17.05,11.88-23.88,19.44-5.71,6.31-9.45,12-11.76,18-2.11,5.48-4.67,12-7.56,18.37a24.23,24.23,0,0,1-12.83,12.63,4.71,4.71,0,0,0-1.69,1.49c-.17.21-.34.42-.5.58L479.85,426l1.56.49a6.85,6.85,0,0,1,.8.31,5.17,5.17,0,0,0,2,.57,1.72,1.72,0,0,0,.39,0,28.36,28.36,0,0,0,18.79-11.13,66.15,66.15,0,0,0,7.94-14c4.59-11,12.24-19.3,23.42-25.31,10.13-5.46,23.43-12.69,36.47-20.2,14.71-8.47,26.09-16.53,35.79-25.36a178.22,178.22,0,0,0,22-24,137.14,137.14,0,0,0,17-29c3.55-8.31,6.73-16.51,6.76-25.51a1.86,1.86,0,0,1,.14-.83M473,321.52a3.33,3.33,0,0,0,.46,0c3.26-.39,6.56-.87,9.75-1.33l3.35-.49.91-.13-.05-.91,0-.54,0-.53,0-.81-.8-.12-3.53-.54c-3.59-.56-7.31-1.13-11-1.59l-.24,0a4.53,4.53,0,0,0-2.72,1.21,1.17,1.17,0,0,0-.35.93,7.23,7.23,0,0,0,1.39,3.76,3.93,3.93,0,0,0,2.92,1.14m-26.4,9.66,1.46-.26c1-.17,2-.31,3-.45,3.43-.48,7-1,10.11-3a3.59,3.59,0,0,0,1.64-2.72,3.07,3.07,0,0,0-2.26-2.53c-2.78-.35-5.58-.6-8.29-.83l-2.63-.24-.89-.08-.18.87-.81,3.82-.84,4-.31,1.45m39.83,143.54.82,0,.68,0h1.52l-.6-1.4a4.69,4.69,0,0,0-2.13-2.48c-9.3-4.85-19.86-11.24-27.58-21.77-3.74-5.1-7.37-10.71-8.61-17.25a95.51,95.51,0,0,1-1.17-16.39c-.06-4.64,1.31-9.36,4.44-15.31a83.1,83.1,0,0,1,5.68-8.85c.94-1.34,1.91-2.72,2.83-4.11a2.8,2.8,0,0,0,.37-1.11c0-.21.09-.48.17-.83l.43-1.79-1.73.61c-.42.15-.79.26-1.13.36a8.37,8.37,0,0,0-1.91.76,50.46,50.46,0,0,0-14.94,13.62l-.07.11c-3.05,4.32-6.21,8.78-7.68,13.75a40.07,40.07,0,0,0,1.43,27.7c3,7.13,7.93,13.33,15,19,8.75,7,19.58,12,33.12,15.38a4.49,4.49,0,0,0,1.08.11M652.88,251.05c-.65,0-1.08.66-1.08,1.83,0,9-3.26,17.12-6.68,25.13a135.2,135.2,0,0,1-16.84,28.78,176.34,176.34,0,0,1-21.9,23.85c-10.82,9.84-23,17.95-35.62,25.24-12,6.93-24.22,13.59-36.45,20.18-10.94,5.89-19,14.19-23.86,25.8a65.48,65.48,0,0,1-7.82,13.77,27.3,27.3,0,0,1-18.14,10.74l-.24,0a9.82,9.82,0,0,1-2.54-.84c.62-.63,1.13-1.53,1.88-1.85a25.21,25.21,0,0,0,13.34-13.14c2.73-6.05,5.19-12.22,7.58-18.42,2.61-6.75,6.82-12.47,11.57-17.72,6.89-7.62,15.26-13.52,23.7-19.28,10-6.81,20.15-13.37,30-20.43,12.85-9.25,24.74-19.53,33.66-32.92a38.22,38.22,0,0,0,6-14c.76-4,.89-8-.91-12.06-2.33-5.19-7-7.08-11.6-9.16a4.89,4.89,0,0,0-2.07-.3h-1.08c-.38,0-.78,0-1.21,0,4.84,5.53,6.18,11.32,3.91,17.28a66.57,66.57,0,0,1-8,15.56c-4.84,6.6-10.52,12.61-16.13,18.61-9.59,10.25-21.13,18.1-32.6,26.06-10.26,7.13-20.29,14.61-30.31,22.09a44.6,44.6,0,0,0-13.83,17.9c-3.17,7.1-5.3,14.67-7.93,22-1.07,3-1.83,6.25-3.52,8.89s-3.32,3.9-5.15,3.9a5.16,5.16,0,0,1-3.52-1.7,10.63,10.63,0,0,1-2.49-5.2c-2-8.7.45-16.69,4.88-24,4.75-7.89,11.45-14.15,18.24-20.28,7.08-6.41,14.65-12.29,20.18-20.29,4.12-5.95,4-17.49-4.9-21.59a31.38,31.38,0,0,1-2.8-1.63,12.89,12.89,0,0,1,3.59-.56,8.7,8.7,0,0,1,1.26.08,59.06,59.06,0,0,0,7.6.52,41.14,41.14,0,0,0,12.86-1.95c3.5-1.15,6.81-2.75,8.56-6.33.63-1.28,1.22-2.67-.19-3.26a52.62,52.62,0,0,1-5.92,3.05,19.62,19.62,0,0,1-6.7,1.11,52.58,52.58,0,0,1-11-1.63c-11.45-2.46-22.78-5.46-34.25-7.81a52.15,52.15,0,0,0-10.4-1.2,30.12,30.12,0,0,0-8.23,1.08c-4.27,1.19-5.47,2.72-5.67,7.4h-5c-1.88,0-3.77,0-5.66-.06-.44,0-1-.66-1.27-1.14-1-1.75-1.9-3.56-2.85-5.38l-6.05,1c1.14,2.1,2.16,4,3.27,6-6.66,2.68-14.33,2.87-17.32,10.86,4.92-1,9.43-2,14-2.77a16.45,16.45,0,0,1,2.56-.33c1.63,0,1.57.92.86,3.73a11.8,11.8,0,0,0-.42,1.83c-.18,2-1.4,2.69-3.22,2.69h-5.48c.45,3.64,3.58,2.72,5.69,4.56-2,2.23-3.85,4.42-5.84,6.49a.58.58,0,0,1-.41.11,2.48,2.48,0,0,1-1.22-.34,14.42,14.42,0,0,0-8.24-2.53A22.57,22.57,0,0,0,416,340.5c-3.49,1.23-6.77,3.27-10.77,3.27a11.47,11.47,0,0,1-2.29-.23c.79,2.49,2.54,3.2,4.27,3.68a18,18,0,0,0,4.81.67,20.46,20.46,0,0,0,9-2.23,16.18,16.18,0,0,1,7-2.05,9.72,9.72,0,0,1,2.62.36,12.84,12.84,0,0,1-3.34,2.51c-3.34,1.7-6.91,3-10,5.06-2.26,1.48-4.84,3.57-5.64,5.94-1.33,4,2.48,7.48,6.67,7.48a7.35,7.35,0,0,0,1.32-.11c.31-1.39.22-2.81.88-3.63,1.19-1.49,2.94-2.5,4.24-3.91,1.46-1.58,3.87-3.49,3.74-5.06-.28-3.13,1.54-4,3.39-5.25a3.16,3.16,0,0,1,1.73-.66c.74,0,1.38.46,1.94,1.47a12.15,12.15,0,0,0,10.81,6.64,15.39,15.39,0,0,0,9.4-3.49c1.57-1.22,3.62-2.75,3.09-5.67-.92.49-1.68.95-2.48,1.31a10,10,0,0,1-4.07,1.13,6.14,6.14,0,0,1-4-1.62c-2.08-1.71-5.38-2-8.16-2.82a17.37,17.37,0,0,0-2.37-.34c2.1-2.51,3.81-4.76,5.74-6.79a6.46,6.46,0,0,1,3.23-1.86c4.3-.8,8.66-1.32,13-2a42.15,42.15,0,0,1,6.76-.61,22.8,22.8,0,0,1,9.33,1.83c5.06,2.22,7.74,8.6,5.69,12.82a29.41,29.41,0,0,1-10.28,11.3C461,364.56,450.48,371,440.3,378c-6.8,4.65-13.4,9.65-19.71,14.94a66,66,0,0,0-13.47,15.94,52.24,52.24,0,0,0-8,23.94,40.22,40.22,0,0,0,3.7,19.17,50,50,0,0,0,13.89,18.57c9.24,7.75,19.87,13.11,31.15,17.19a227.89,227.89,0,0,0,55.82,12.67c4.08.39,5.31,2.61,6.23,5.51,2.4,7.52,3.5,15.14.48,22.82a21.27,21.27,0,0,0-.6,2.25l.52.59,10.64-7c1.3,4.87,2.45,9.86,4,14.73,2.12,6.87,4.43,13.68,6.8,20.47a37.28,37.28,0,0,0,2.8,5.39c2.25,4,4.63,7.94,6.76,12,1.3,2.47.31,4.29-2.23,4.29l-.57,0c-2.55-.25-5.05-1.08-7.59-1.54-5.36-1-10.7-2.14-16.1-2.61-.37,0-.72-.05-1-.05-3.29,0-4.57,1.62-5.44,5.26-.62,0-1.28-.05-1.94-.05a6.56,6.56,0,0,0-1.18.09c-2.17.38-4.56.51-6.39,1.56a6.7,6.7,0,0,0-2.77,4.37c-.14,1,1.59,2.29,2.57,3.56a13.12,13.12,0,0,1,10-5.06,10.31,10.31,0,0,1,3.12.47c-1,.69-1.74,1.23-2.51,1.71-1.84,1.14-2.69,2.93-1.88,4.8.52,1.18,2,2,3.26,2.76a1.66,1.66,0,0,0,.73.14c.59,0,1.27-.18,1.39-.43,2.29-4.72,6.91-5.59,11.2-6.24a170.81,170.81,0,0,1,25.52-1.94,165.61,165.61,0,0,1,19.75,1.18,30.5,30.5,0,0,1,10.4,3,8.63,8.63,0,0,0,3.76,1.33c1.28,0,2.38-.76,4-2.52,3-3.41,1.34-5.94-1.94-6.84-3.81-1.05-7.89-1.23-11.87-1.55-3.2-.26-6.43-.1-9.65-.26-4.68-.24-7.9-3-9.65-7a188.79,188.79,0,0,1-7.39-19.32c-1.69-5.42-2.58-11.11-3.68-16.71-.84-4.24-1.46-8.53-2.3-13.53,5.35,2.29,10.23,4.55,15.69,4.55a19.94,19.94,0,0,0,5.42-.76c-1.8-1.21-3-2.08-4.23-2.84a34.42,34.42,0,0,1-15.74-21.25c-1.36-5.22-.76-11-.79-16.5,0-1.39-.05-2.19-1.33-3.06-13.08-8.87-26.11-17.79-35.77-30.71-3.82-5.1-6.61-10.49-7.1-16.9a19.26,19.26,0,0,1,.58-3.78,15.26,15.26,0,0,1,2,2.13c1.77,3.15,3.47,6.34,5.19,9.52,4.22,7.82,10.61,13.71,17.44,19.11,9.18,7.27,18.61,14.23,27.83,21.45a41.8,41.8,0,0,1,11.18,13.68,35.64,35.64,0,0,1,3.7,17.94,19.55,19.55,0,0,0,.75,4.06c.91-1.23,2.3-2.33,2.64-3.69,2.46-9.78,1.92-19.39-2.72-28.44-4.82-9.39-12.5-16.13-21-22.11-10.31-7.24-21.44-13.36-30.57-22.19a99.06,99.06,0,0,1-7.75-9.07,1.93,1.93,0,0,1,0-1.89,1.21,1.21,0,0,1,.86-.24,3.37,3.37,0,0,1,1,.16,5.34,5.34,0,0,1,1.74,1.17,78.59,78.59,0,0,0,31.51,16.89,61.48,61.48,0,0,0,16.13,2.33,43.92,43.92,0,0,0,23.26-6.45c2.2-1.33,4.3-2.8,6.83-4.46-10.4-1-20-1.48-29.55-2.86s-18.86-3.71-27.89-8.44c.86-.55,1.07-.78,1.3-.81,1.07-.14,2.14-.21,3.21-.32,7.51-.76,14.58-2.68,20.27-8a14.13,14.13,0,0,0,1.62-2.53c-1.05,0-2.09,0-3.13,0-2.4,0-4.76.05-7.1.05-4.94,0-9.74-.24-14.45-1.77a6.77,6.77,0,0,1,3.06-.93c7.93-.54,15.59-2.13,22.63-6,3.1-1.69,5.84-3.82,7-8-8.6.87-16.84,2.84-25.16,2.84a44.57,44.57,0,0,1-6.89-.51,13.06,13.06,0,0,1,3.84-1.49c7-2,14.13-3.81,21.07-6.11a15.54,15.54,0,0,0,8.72-6.68,10.87,10.87,0,0,0,.73-3.25c-.7,0-1.42-.09-2.12-.09a5,5,0,0,0-1.09.1c-9.42,2-18.83,4.16-28.25,6.2a3.36,3.36,0,0,1-.63.06c-.64,0-1.32-.16-2-.2,0-.26-.08-.53-.11-.79.76-.31,1.51-.68,2.29-.93,5.87-1.89,11.87-3.43,17.56-5.73,5.88-2.39,12.09-4.74,14.79-11.37a16.53,16.53,0,0,0,.59-3.71c-.86,0-1.76-.21-2.6-.21a3.79,3.79,0,0,0-1.12.15c-7,2.13-14,4.44-21,6.63a5,5,0,0,1-1.52.16h-.5l-.59,0-.22-.76a20.15,20.15,0,0,1,2.05-1.41c13.53-7.35,27.13-14.56,40.59-22a203.41,203.41,0,0,0,42.14-31.47c8.76-8.42,17-17.3,23.69-27.55,5.29-8.08,10.59-16,13.18-25.58,1.41-5.2-.41-9.27-2.38-13.39-1.17-2.43-3.5-4.37-5.53-6.3a2,2,0,0,0-1.27-.65ZM473,320.52a3,3,0,0,1-2.14-.76,6.32,6.32,0,0,1-1.17-3.23c0-.28,1.32-1,2.07-1h.12c4.84.61,9.65,1.4,14.48,2.13l.06,1.06c-4.36.62-8.71,1.3-13.08,1.82l-.34,0Zm-25.11,9.42,1.64-7.8c3.57.33,7.24.6,10.89,1.06a2.16,2.16,0,0,1,1.39,1.58,2.61,2.61,0,0,1-1.18,1.84c-3.82,2.47-8.23,2.52-12.74,3.32Zm14,55a7.31,7.31,0,0,1-.4,1.62c-2.88,4.34-6.15,8.47-8.56,13-2.57,4.87-4.63,10.15-4.56,15.8A96.28,96.28,0,0,0,449.59,432c1.25,6.57,4.81,12.23,8.78,17.65,7.31,10,17.22,16.48,27.93,22.07a3.67,3.67,0,0,1,1.67,2c-.49,0-1,.06-1.5.06a3.86,3.86,0,0,1-.84-.08c-11.88-3-23.1-7.51-32.73-15.19-6.27-5-11.46-11-14.69-18.56a39.13,39.13,0,0,1-1.39-27c1.43-4.86,4.62-9.34,7.61-13.57A49.21,49.21,0,0,1,459.07,386a18.05,18.05,0,0,1,2.85-1Z" transform="translate(-130 -251.05)"/></g></svg>
